<svg xmlns="http://www.w3.org/2000/svg" width="153" height="45" viewBox="0 0 153 45"
    data-arp-injected="true">
    <g>
        <g>
            <g>
                <path fill="#fff"
                    d="M12.932 1.043c4.95 0 8.183 1.192 10.338 3.825 2.156 2.682 3.153 6.506 3.153 11.87 0 16.093-9.978 16.739-15.446 16.739H0v-1.788c2.594-.15 2.914-.348 2.914-2.732V5.613c0-2.434-.36-2.682-2.914-2.782V1.043zM9.46 29.553c0 1.192.439 1.738 2.674 1.738 3.553 0 7.145-1.837 7.145-14.304 0-9.239-2.675-13.758-7.305-13.758-2.155 0-2.514.248-2.514 1.142z" />
            </g>
            <g>
                <path fill="#fff"
                    d="M33.408 21.805c0 4.867 1.317 8.543 4.91 8.543 2.234 0 3.831-1.391 4.949-4.024l1.357.944c-1.278 4.172-3.752 6.805-8.223 6.805-7.105.05-9.26-5.762-9.26-12.07 0-6.506 2.475-12.02 9.34-12.02 7.304 0 8.462 5.812 8.462 9.785 0 1.54-.639 2.037-2.076 2.037zm4.39-2.335c.879 0 1.158-.198 1.158-1.54 0-2.284-.44-5.761-2.555-5.761-2.235 0-3.033 3.725-3.033 7.301z" />
            </g>
            <g>
                <path fill="#fff"
                    d="M64.34 29.454c0 1.887.32 2.086 2.396 2.235v1.788H56.518v-1.788c1.077-.15 1.876.05 1.876-1.838V17.73c0-2.582-.998-4.022-2.834-4.022-1.517 0-2.475.993-2.874 2.135-.28.646-.4 1.788-.4 2.782v11.026c0 1.888.799 1.888 1.877 2.037v1.788H43.984v-1.788c2.036-.15 2.355-.298 2.355-2.136V15.795c0-1.888-.319-2.335-.838-2.384l-1.317-.249v-1.738l7.624-1.391.479 3.13c2.514-1.789 4.31-3.18 6.386-3.18 3.911 0 5.668 2.832 5.668 7.153z" />
            </g>
            <g>
                <path fill="#fff"
                    d="M72.842 12.964v13.31c0 3.03.998 4.223 2.315 4.223.319 0 1.077-.15 1.596-.447l.4 1.49c-2.236 1.738-4.072 2.533-5.589 2.533-2.195 0-4.67-1.937-4.67-6.11v-15H64.78V10.58h2.315l3.433-5.861h2.315v5.86h3.792v2.385z" />
            </g>
        </g>
    </g>
</svg>